grf
version=1
nRows=12
nColumns=37
inDegrees=no
endheader
time	ground_force_1_vx	ground_force_1_vy	ground_force_1_vz	ground_force_1_px	ground_force_1_py	ground_force_1_pz	ground_moment_1_mx	ground_moment_1_my	ground_moment_1_mz	ground_force_2_vx	ground_force_2_vy	ground_force_2_vz	ground_force_2_px	ground_force_2_py	ground_force_2_pz	ground_moment_2_mx	ground_moment_2_my	ground_moment_2_mz	ground_force_3_vx	ground_force_3_vy	ground_force_3_vz	ground_force_3_px	ground_force_3_py	ground_force_3_pz	ground_moment_3_mx	ground_moment_3_my	ground_moment_3_mz	ground_force_4_vx	ground_force_4_vy	ground_force_4_vz	ground_force_4_px	ground_force_4_py	ground_force_4_pz	ground_moment_4_mx	ground_moment_4_my	ground_moment_4_mz
      0.00000000	      0.00000000	     -0.00000000	      0.00000000	      0.00000000	      0.00000000	      0.00000000	      0.00000000	      0.00000000	      0.00000000	    -11.98147869	     53.74563599	   -431.23272705	   -306.46940427	  -1062.40217261	      0.00000000	      0.00000000	      0.00000000	   1546.61669211	      4.37760516	    -30.44755974	   -332.01464844	   -343.97791007	   -645.13682358	      0.00000000	     -0.00000000	     -0.00000000	   -238.83282062	    -35.54229975	     16.30813528	     75.68371582	    606.05258831	   -564.29430649	      0.00000000	     -0.00000000	     -0.00000000	     50.31324998
      0.01000000	      0.00000000	     -0.00000000	      0.00000000	      0.00000000	      0.00000000	      0.00000000	      0.00000000	      0.00000000	      0.00000000	    -12.89680386	     54.22612762	   -433.67446899	   -305.81489778	  -1062.64955398	      0.00000000	     -0.00000000	      0.00000000	   1381.00413152	      4.96402526	    -30.02561422	   -328.09606934	   -344.66097267	   -645.25274718	      0.00000000	     -0.00000000	     -0.00000000	   -248.13482350	    -35.15323115	     16.25716326	     75.57685852	    603.04452324	   -565.87598580	      0.00000000	      0.00000000	      0.00000000	    118.59150892
      0.02000000	      0.00000000	     -0.00000000	      0.00000000	      0.00000000	      0.00000000	      0.00000000	      0.00000000	      0.00000000	      0.00000000	    -12.84223557	     54.90840530	   -436.31646729	   -304.70044284	  -1063.23413786	      0.00000000	      0.00000000	      0.00000000	   1495.10616734	      4.97180493	    -29.18091245	   -325.18179321	   -345.91091679	   -646.18231400	      0.00000000	      0.00000000	     -0.00000000	   -245.17319572	    -35.35895395	     16.35148548	     75.91172791	    603.94396280	   -563.45271502	      0.00000000	      0.00000000	     -0.00000000	    -47.80995761
      0.03000000	      0.00000000	     -0.00000000	      0.00000000	      0.00000000	      0.00000000	      0.00000000	      0.00000000	      0.00000000	      0.00000000	    -12.54753494	     54.95811462	   -437.55648804	   -305.27154369	  -1062.97088546	      0.00000000	      0.00000000	      0.00000000	   1539.55032481	      5.54951559	    -28.76205111	   -321.02487183	   -347.29908368	   -646.65707150	      0.00000000	      0.00000000	     -0.00000000	   -151.68469827	    -34.95997861	     16.04603882	     75.92830658	    601.73236461	   -565.49936131	      0.00000000	      0.00000000	      0.00000000	    174.62038407
      0.04000000	      0.00000000	     -0.00000000	      0.00000000	      0.00000000	      0.00000000	      0.00000000	      0.00000000	      0.00000000	      0.00000000	    -12.26185799	     55.31439972	   -438.86166382	   -305.96041825	  -1062.29682026	      0.00000000	      0.00000000	      0.00000000	   1729.85878631	      6.59560914	    -27.85651837	   -319.68380737	   -348.20993987	   -646.42489416	      0.00000000	      0.00000000	     -0.00000000	    -70.48654469	    -35.19750833	     16.43747637	     74.99855804	    607.44265370	   -564.83384883	      0.00000000	      0.00000000	     -0.00000000	   -122.42974735
      0.05000000	      0.00000000	     -0.00000000	      0.00000000	      0.00000000	      0.00000000	      0.00000000	      0.00000000	      0.00000000	      0.00000000	    -11.89627075	     56.44618607	   -440.27331543	   -306.12423424	  -1061.66958529	      0.00000000	     -0.00000000	      0.00000000	   1688.26064117	      7.05672257	    -28.02891793	   -316.20904541	   -350.51038745	   -647.53045487	      0.00000000	      0.00000000	     -0.00000000	   -124.24944668	    -35.06771710	     16.09036943	     75.96572113	    602.55792537	   -562.30989510	      0.00000000	      0.00000000	     -0.00000000	    -79.57564418
      0.06000000	      0.00000000	     -0.00000000	      0.00000000	      0.00000000	      0.00000000	      0.00000000	      0.00000000	      0.00000000	      0.00000000	    -11.50339317	     56.81688309	   -446.96408081	   -306.44269461	  -1064.01082778	      0.00000000	      0.00000000	      0.00000000	   1608.30122188	      7.53573082	    -27.52537221	   -314.21804810	   -352.09877247	   -648.51152789	      0.00000000	      0.00000000	     -0.00000000	   -143.17970033	    -35.36753702	     16.39631581	     76.50756836	    602.63578130	   -560.77719714	      0.00000000	      0.00000000	     -0.00000000	   -173.19515087
      0.07000000	      0.00000000	     -0.00000000	      0.00000000	      0.00000000	      0.00000000	      0.00000000	      0.00000000	      0.00000000	      0.00000000	    -11.30332565	     57.84563446	   -450.09533691	   -306.78984297	  -1063.26443182	      0.00000000	      0.00000000	      0.00000000	   1452.52968774	      7.43031786	    -27.46315640	   -311.33978271	   -352.54562191	   -648.35859043	      0.00000000	      0.00000000	      0.00000000	     28.54812082	    -35.27306226	     16.05750964	     76.48759460	    602.46068131	   -559.42976584	      0.00000000	      0.00000000	     -0.00000000	    -86.51105379
      0.08000000	      0.00000000	     -0.00000000	      0.00000000	      0.00000000	      0.00000000	      0.00000000	      0.00000000	      0.00000000	      0.00000000	    -11.23536587	     58.76321030	   -456.76577759	   -307.58666429	  -1064.30552115	      0.00000000	      0.00000000	      0.00000000	   1620.30680883	      7.95778277	    -26.94316934	   -307.64257812	   -353.46341400	   -648.19283020	      0.00000000	      0.00000000	      0.00000000	      5.20103502	    -35.39398051	     16.25275349	     74.95926666	    607.46574671	   -566.59105667	      0.00000000	      0.00000000	      0.00000000	     11.51223694
      0.09000000	      0.00000000	     -0.00000000	      0.00000000	      0.00000000	      0.00000000	      0.00000000	      0.00000000	      0.00000000	      0.00000000	    -11.59205151	     60.20474625	   -461.60620117	   -308.57162781	  -1063.37147803	      0.00000000	      0.00000000	     -0.00000000	   1406.68446192	      8.15615805	    -26.38221621	   -301.46166992	   -354.93698713	   -649.36960955	      0.00000000	      0.00000000	     -0.00000000	    -97.72515271	    -35.42013790	     16.11001515	     76.05379486	    605.20903492	   -563.07885728	      0.00000000	      0.00000000	      0.00000000	     68.31129074
      0.10000000	      0.00000000	     -0.00000000	      0.00000000	      0.00000000	      0.00000000	      0.00000000	      0.00000000	      0.00000000	      0.00000000	    -11.47657108	     61.72473907	   -466.27865601	   -309.97838094	  -1062.23145432	      0.00000000	      0.00000000	      0.00000000	   1361.01892995	      8.37020170	    -25.92988850	   -298.03048706	   -355.65963738	   -648.26434351	      0.00000000	      0.00000000	      0.00000000	     21.82690905	    -35.13676693	     16.14212725	     75.20597839	    603.71445103	   -561.17755511	      0.00000000	      0.00000000	     -0.00000000	    -63.94974764
      0.11000000	      0.00000000	     -0.00000000	      0.00000000	      0.00000000	      0.00000000	      0.00000000	      0.00000000	      0.00000000	      0.00000000	    -11.15131378	     62.36536026	   -469.97976685	   -311.50982582	  -1060.70213055	      0.00000000	      0.00000000	      0.00000000	   1199.69798284	      8.70484802	    -24.84412079	   -291.39584351	   -357.63036644	   -650.19687615	      0.00000000	      0.00000000	      0.00000000	     32.88043279	    -35.16874554	     16.10456774	     75.35285187	    606.00901797	   -560.82499620	      0.00000000	      0.00000000	     -0.00000000	   -161.36910295
